<mxfile host="app.diagrams.net" agent="Mozilla/5.0 (Windows NT 10.0; Win64; x64) AppleWebKit/537.36 (KHTML, like Gecko) Chrome/133.0.0.0 Safari/537.36" version="26.0.16">
  <diagram name="Page-1" id="e7e014a7-5840-1c2e-5031-d8a46d1fe8dd">
    <mxGraphModel dx="1720" dy="804" grid="1" gridSize="10" guides="1" tooltips="1" connect="1" arrows="1" fold="1" page="1" pageScale="1" pageWidth="1169" pageHeight="826" background="none" math="0" shadow="0">
      <root>
        <mxCell id="0" />
        <mxCell id="1" parent="0" />
        <mxCell id="dYWNdNSG-rDKPoqrVDKy-55" style="edgeStyle=orthogonalEdgeStyle;rounded=0;orthogonalLoop=1;jettySize=auto;html=1;exitX=0.5;exitY=1;exitDx=0;exitDy=0;exitPerimeter=0;entryX=0.5;entryY=0;entryDx=0;entryDy=0;" edge="1" parent="1" source="dYWNdNSG-rDKPoqrVDKy-41" target="dYWNdNSG-rDKPoqrVDKy-45">
          <mxGeometry relative="1" as="geometry" />
        </mxCell>
        <mxCell id="dYWNdNSG-rDKPoqrVDKy-41" value="Stand on road" style="strokeWidth=2;html=1;shape=mxgraph.flowchart.start_2;whiteSpace=wrap;" vertex="1" parent="1">
          <mxGeometry x="520" y="20" width="60" height="40" as="geometry" />
        </mxCell>
        <mxCell id="dYWNdNSG-rDKPoqrVDKy-51" style="edgeStyle=orthogonalEdgeStyle;rounded=0;orthogonalLoop=1;jettySize=auto;html=1;exitX=1;exitY=0.5;exitDx=0;exitDy=0;exitPerimeter=0;entryX=1;entryY=0.5;entryDx=0;entryDy=0;" edge="1" parent="1" source="dYWNdNSG-rDKPoqrVDKy-42" target="dYWNdNSG-rDKPoqrVDKy-45">
          <mxGeometry relative="1" as="geometry">
            <Array as="points">
              <mxPoint x="660" y="180" />
              <mxPoint x="660" y="105" />
            </Array>
          </mxGeometry>
        </mxCell>
        <mxCell id="dYWNdNSG-rDKPoqrVDKy-57" style="edgeStyle=orthogonalEdgeStyle;rounded=0;orthogonalLoop=1;jettySize=auto;html=1;exitX=0.5;exitY=1;exitDx=0;exitDy=0;exitPerimeter=0;entryX=0.5;entryY=0;entryDx=0;entryDy=0;" edge="1" parent="1" source="dYWNdNSG-rDKPoqrVDKy-42" target="dYWNdNSG-rDKPoqrVDKy-48">
          <mxGeometry relative="1" as="geometry" />
        </mxCell>
        <mxCell id="dYWNdNSG-rDKPoqrVDKy-42" value="Vehicle are there till 100m" style="strokeWidth=2;html=1;shape=mxgraph.flowchart.decision;whiteSpace=wrap;" vertex="1" parent="1">
          <mxGeometry x="495" y="150" width="105" height="60" as="geometry" />
        </mxCell>
        <mxCell id="dYWNdNSG-rDKPoqrVDKy-45" value="Scan Right and Left" style="rounded=1;whiteSpace=wrap;html=1;absoluteArcSize=1;arcSize=14;strokeWidth=2;" vertex="1" parent="1">
          <mxGeometry x="505" y="90" width="85" height="30" as="geometry" />
        </mxCell>
        <mxCell id="dYWNdNSG-rDKPoqrVDKy-48" value="Scan road and cross over road and climb median" style="rounded=1;whiteSpace=wrap;html=1;absoluteArcSize=1;arcSize=14;strokeWidth=2;" vertex="1" parent="1">
          <mxGeometry x="500" y="240" width="100" height="50" as="geometry" />
        </mxCell>
        <mxCell id="dYWNdNSG-rDKPoqrVDKy-50" value="Yes" style="text;html=1;align=center;verticalAlign=middle;resizable=0;points=[];autosize=1;strokeColor=none;fillColor=none;" vertex="1" parent="1">
          <mxGeometry x="560" y="210" width="40" height="30" as="geometry" />
        </mxCell>
        <mxCell id="dYWNdNSG-rDKPoqrVDKy-52" value="No" style="text;html=1;align=center;verticalAlign=middle;resizable=0;points=[];autosize=1;strokeColor=none;fillColor=none;" vertex="1" parent="1">
          <mxGeometry x="620" y="150" width="40" height="30" as="geometry" />
        </mxCell>
        <mxCell id="dYWNdNSG-rDKPoqrVDKy-53" value="Scan Left" style="rounded=1;whiteSpace=wrap;html=1;absoluteArcSize=1;arcSize=14;strokeWidth=2;" vertex="1" parent="1">
          <mxGeometry x="505" y="320" width="95" height="40" as="geometry" />
        </mxCell>
        <mxCell id="dYWNdNSG-rDKPoqrVDKy-56" style="edgeStyle=orthogonalEdgeStyle;rounded=0;orthogonalLoop=1;jettySize=auto;html=1;exitX=0.5;exitY=1;exitDx=0;exitDy=0;entryX=0.5;entryY=0;entryDx=0;entryDy=0;entryPerimeter=0;" edge="1" parent="1" source="dYWNdNSG-rDKPoqrVDKy-45" target="dYWNdNSG-rDKPoqrVDKy-42">
          <mxGeometry relative="1" as="geometry" />
        </mxCell>
        <mxCell id="dYWNdNSG-rDKPoqrVDKy-59" value="No" style="text;html=1;align=center;verticalAlign=middle;resizable=0;points=[];autosize=1;strokeColor=none;fillColor=none;" vertex="1" parent="1">
          <mxGeometry x="610" y="383" width="40" height="30" as="geometry" />
        </mxCell>
        <mxCell id="dYWNdNSG-rDKPoqrVDKy-60" style="edgeStyle=orthogonalEdgeStyle;rounded=0;orthogonalLoop=1;jettySize=auto;html=1;exitX=0.5;exitY=1;exitDx=0;exitDy=0;entryX=0.426;entryY=-0.036;entryDx=0;entryDy=0;entryPerimeter=0;" edge="1" parent="1" source="dYWNdNSG-rDKPoqrVDKy-48" target="dYWNdNSG-rDKPoqrVDKy-53">
          <mxGeometry relative="1" as="geometry" />
        </mxCell>
        <mxCell id="dYWNdNSG-rDKPoqrVDKy-63" style="edgeStyle=orthogonalEdgeStyle;rounded=0;orthogonalLoop=1;jettySize=auto;html=1;exitX=1;exitY=0.5;exitDx=0;exitDy=0;exitPerimeter=0;entryX=1;entryY=0.5;entryDx=0;entryDy=0;" edge="1" parent="1" source="dYWNdNSG-rDKPoqrVDKy-61" target="dYWNdNSG-rDKPoqrVDKy-53">
          <mxGeometry relative="1" as="geometry">
            <Array as="points">
              <mxPoint x="660" y="415" />
              <mxPoint x="660" y="340" />
            </Array>
          </mxGeometry>
        </mxCell>
        <mxCell id="dYWNdNSG-rDKPoqrVDKy-67" style="edgeStyle=orthogonalEdgeStyle;rounded=0;orthogonalLoop=1;jettySize=auto;html=1;exitX=0.5;exitY=1;exitDx=0;exitDy=0;exitPerimeter=0;entryX=0.5;entryY=0;entryDx=0;entryDy=0;" edge="1" parent="1" source="dYWNdNSG-rDKPoqrVDKy-61" target="dYWNdNSG-rDKPoqrVDKy-65">
          <mxGeometry relative="1" as="geometry" />
        </mxCell>
        <mxCell id="dYWNdNSG-rDKPoqrVDKy-61" value="No vehicle are there" style="strokeWidth=2;html=1;shape=mxgraph.flowchart.decision;whiteSpace=wrap;" vertex="1" parent="1">
          <mxGeometry x="505" y="380" width="95" height="70" as="geometry" />
        </mxCell>
        <mxCell id="dYWNdNSG-rDKPoqrVDKy-64" style="edgeStyle=orthogonalEdgeStyle;rounded=0;orthogonalLoop=1;jettySize=auto;html=1;exitX=0.5;exitY=1;exitDx=0;exitDy=0;entryX=0.5;entryY=0;entryDx=0;entryDy=0;entryPerimeter=0;" edge="1" parent="1" source="dYWNdNSG-rDKPoqrVDKy-53" target="dYWNdNSG-rDKPoqrVDKy-61">
          <mxGeometry relative="1" as="geometry" />
        </mxCell>
        <mxCell id="dYWNdNSG-rDKPoqrVDKy-65" value="Scan road and cross over road and stand on footpath" style="rounded=1;whiteSpace=wrap;html=1;absoluteArcSize=1;arcSize=14;strokeWidth=2;" vertex="1" parent="1">
          <mxGeometry x="505" y="470" width="95" height="50" as="geometry" />
        </mxCell>
        <mxCell id="dYWNdNSG-rDKPoqrVDKy-66" value="END" style="strokeWidth=2;html=1;shape=mxgraph.flowchart.start_2;whiteSpace=wrap;" vertex="1" parent="1">
          <mxGeometry x="515" y="550" width="77.5" height="60" as="geometry" />
        </mxCell>
        <mxCell id="dYWNdNSG-rDKPoqrVDKy-68" style="edgeStyle=orthogonalEdgeStyle;rounded=0;orthogonalLoop=1;jettySize=auto;html=1;exitX=0.5;exitY=1;exitDx=0;exitDy=0;entryX=0.5;entryY=0;entryDx=0;entryDy=0;entryPerimeter=0;" edge="1" parent="1" source="dYWNdNSG-rDKPoqrVDKy-65" target="dYWNdNSG-rDKPoqrVDKy-66">
          <mxGeometry relative="1" as="geometry" />
        </mxCell>
        <mxCell id="dYWNdNSG-rDKPoqrVDKy-69" value="Yes" style="text;html=1;align=center;verticalAlign=middle;resizable=0;points=[];autosize=1;strokeColor=none;fillColor=none;" vertex="1" parent="1">
          <mxGeometry x="560" y="438" width="40" height="30" as="geometry" />
        </mxCell>
      </root>
    </mxGraphModel>
  </diagram>
</mxfile>
